<?xml version="1.0" encoding="UTF-8"?>
<svg id="Layer_2" xmlns="http://www.w3.org/2000/svg" viewBox="0 0 271.02 38.81">
  <defs>
    <style>
      .cls-1 {
        fill: #fca15f;
      }
    </style>
  </defs>
  <g id="Layer_1-2" data-name="Layer_1">
    <g>
      <rect class="cls-1" x="97.51" y="1.57" width="32.31" height="35.98" rx="16.16" ry="16.16"/>
      <g>
        <path d="M17.89,38.81c-2.59,0-4.98-.48-7.16-1.44-2.19-.96-4.08-2.31-5.69-4.04-1.61-1.73-2.85-3.78-3.72-6.14-.87-2.36-1.31-4.96-1.31-7.79s.44-5.43,1.31-7.79c.87-2.36,2.11-4.41,3.7-6.14,1.59-1.73,3.48-3.08,5.66-4.04,2.19-.96,4.57-1.44,7.16-1.44,2.83,0,5.38.58,7.63,1.73,2.26,1.15,4.11,2.78,5.56,4.88,1.45,2.1,2.35,4.55,2.7,7.34h-4.3c-.42-3.11-1.65-5.57-3.7-7.37-2.05-1.8-4.66-2.7-7.84-2.7-2.69,0-5.05.66-7.08,1.97-2.03,1.31-3.6,3.13-4.72,5.46-1.12,2.33-1.68,5.03-1.68,8.1s.56,5.78,1.68,8.1c1.12,2.33,2.69,4.14,4.72,5.46,2.03,1.31,4.37,1.97,7.03,1.97,3.25,0,5.92-.91,8-2.73,2.08-1.82,3.31-4.27,3.7-7.34h4.3c-.35,2.8-1.25,5.25-2.7,7.34-1.45,2.1-3.3,3.72-5.56,4.88-2.26,1.15-4.82,1.73-7.68,1.73Z"/>
        <path d="M35.51,38.29V.52h4.3v37.76h-4.3ZM37.71,16.73h24.97v3.78h-24.97v-3.78ZM60.79,38.29V.52h4.3v37.76h-4.3Z"/>
        <path d="M68.87,38.29V.52h13.95c2.69,0,4.98.44,6.87,1.31,1.89.88,3.33,2.09,4.33,3.65,1,1.56,1.49,3.4,1.49,5.53s-.5,4-1.49,5.59c-1,1.59-2.44,2.83-4.33,3.72-1.89.89-4.18,1.34-6.87,1.34h-10.8v-3.78h10.65c2.8,0,4.92-.61,6.37-1.84,1.45-1.22,2.18-2.9,2.18-5.04s-.72-3.74-2.15-4.93c-1.43-1.19-3.57-1.78-6.4-1.78h-9.49v33.99h-4.3ZM91,38.29l-20.09-18.72h5.88l20.72,18.72h-6.5Z"/>
        <path d="M113.66,38.81c-2.62,0-5.03-.48-7.21-1.44-2.19-.96-4.08-2.33-5.69-4.09s-2.86-3.84-3.75-6.22c-.89-2.38-1.34-4.98-1.34-7.82,0-3.74.77-7.06,2.31-9.97,1.54-2.9,3.66-5.17,6.37-6.82s5.8-2.46,9.26-2.46,6.65.82,9.36,2.46c2.71,1.64,4.83,3.92,6.37,6.82,1.54,2.9,2.31,6.24,2.31,10.02,0,2.83-.45,5.44-1.34,7.82s-2.14,4.44-3.75,6.19c-1.61,1.75-3.51,3.1-5.72,4.06-2.2.96-4.6,1.44-7.19,1.44ZM113.61,34.93c2.69,0,5.06-.67,7.11-2.02,2.05-1.35,3.65-3.21,4.8-5.59,1.15-2.38,1.73-5.09,1.73-8.13s-.57-5.67-1.71-7.97c-1.14-2.31-2.73-4.11-4.77-5.4-2.05-1.29-4.43-1.94-7.16-1.94s-5.11.65-7.13,1.94c-2.03,1.29-3.6,3.09-4.72,5.38-1.12,2.29-1.68,4.96-1.68,8s.57,5.8,1.71,8.16c1.14,2.36,2.72,4.21,4.75,5.56,2.03,1.35,4.39,2.02,7.08,2.02Z"/>
        <path d="M133.54,38.29V.52h6.61l13.64,36.4h-1.99L165.33.52h6.71v37.76h-4.25V2.78h.58l-13.17,35.51h-5.14l-13.17-35.2h.58v35.2h-3.93Z"/>
        <path d="M173.19,38.29L187.78.52h3.78l-14.21,37.76h-4.14ZM180.43,23.03h19.72v3.78h-19.72v-3.78ZM203.2,38.29L188.98.52h4.04l14.58,37.76h-4.41Z"/>
        <path d="M212.59,38.29V4.3h-12.96V.52h30.21v3.78h-12.96v33.99h-4.3Z"/>
        <path d="M231,38.29V.52h4.3v37.76h-4.3Z"/>
        <path d="M255.07,38.81c-2.59,0-4.98-.48-7.16-1.44-2.19-.96-4.08-2.31-5.69-4.04-1.61-1.73-2.85-3.78-3.72-6.14s-1.31-4.96-1.31-7.79.44-5.43,1.31-7.79,2.11-4.41,3.7-6.14c1.59-1.73,3.48-3.08,5.66-4.04s4.57-1.44,7.16-1.44c2.83,0,5.38.58,7.63,1.73,2.25,1.15,4.11,2.78,5.56,4.88,1.45,2.1,2.35,4.55,2.7,7.34h-4.3c-.42-3.11-1.65-5.57-3.7-7.37-2.04-1.8-4.66-2.7-7.84-2.7-2.69,0-5.05.66-7.08,1.97-2.03,1.31-3.6,3.13-4.72,5.46-1.12,2.33-1.68,5.03-1.68,8.1s.56,5.78,1.68,8.1c1.12,2.33,2.69,4.14,4.72,5.46,2.03,1.31,4.37,1.97,7.03,1.97,3.25,0,5.92-.91,8-2.73,2.08-1.82,3.31-4.27,3.7-7.34h4.3c-.35,2.8-1.25,5.25-2.7,7.34-1.45,2.1-3.3,3.72-5.56,4.88-2.25,1.15-4.82,1.73-7.68,1.73Z"/>
      </g>
      <path d="M110.97,30.17c-.81-.09-1.38-.44-1.72-1.04-.34-.61-.42-1.25-.24-1.92.18-.67.47-1.3.88-1.88.4-.58.86-1.23,1.38-1.95.52-.72.98-1.62,1.38-2.69.09-.27.06-.45-.1-.54-.16-.09-.35-.07-.57.07-1.57.9-2.72,1.78-3.43,2.66-.72.88-1.57,1.49-2.56,1.85-.63.27-1.27.29-1.92.07-.65-.22-1.11-.72-1.38-1.48-.23-.76-.15-1.47.24-2.12.38-.65.89-1.11,1.51-1.38.72-.27,1.41-.37,2.09-.3.67.07,1.42.11,2.25.13.83.02,1.81-.12,2.93-.44.67-.13.74-.4.2-.81-.9-.63-1.75-1.03-2.56-1.21-.81-.18-1.54-.34-2.19-.47-.65-.13-1.25-.43-1.78-.88-.5-.4-.79-.95-.88-1.65-.09-.7.16-1.38.74-2.05.63-.63,1.29-.96,1.99-1.01.7-.04,1.27.13,1.72.54.54.45.94.98,1.21,1.58.27.61.57,1.28.91,2.02.34.74.86,1.54,1.58,2.39.13.18.28.24.44.17s.26-.24.3-.5c.13-1.17.12-2.14-.03-2.93-.16-.78-.3-1.51-.44-2.19-.13-.67-.13-1.35,0-2.02.13-.67.48-1.25,1.04-1.72.56-.47,1.27-.64,2.12-.5.81.09,1.38.44,1.72,1.04.34.61.42,1.25.24,1.92-.13.67-.42,1.3-.84,1.88-.43.58-.9,1.22-1.41,1.92-.52.7-.98,1.61-1.38,2.73-.05.27-.01.46.1.57.11.11.28.1.5-.03,1.08-.58,1.93-1.17,2.56-1.75.63-.58,1.2-1.13,1.72-1.65s1.11-.91,1.78-1.18c.63-.27,1.27-.29,1.92-.07.65.22,1.11.72,1.38,1.48.22.76.15,1.47-.24,2.12-.38.65-.89,1.11-1.52,1.38-.67.23-1.36.31-2.05.27-.7-.04-1.46-.09-2.29-.13-.83-.04-1.81.11-2.93.47-.67.13-.74.4-.2.81.9.58,1.75.98,2.56,1.18.81.2,1.55.37,2.22.5.67.13,1.26.43,1.75.88.49.4.79.95.88,1.65.09.7-.16,1.38-.74,2.05-.58.63-1.22.97-1.92,1.01-.7.04-1.29-.13-1.78-.54-.49-.45-.88-.96-1.14-1.55-.27-.58-.57-1.25-.91-1.99-.34-.74-.87-1.54-1.58-2.39-.18-.18-.35-.25-.5-.2-.16.05-.26.2-.3.47-.09,1.12-.07,2.09.07,2.89.13.81.28,1.54.44,2.19.16.65.15,1.34-.03,2.05-.13.67-.48,1.25-1.04,1.72-.56.47-1.27.64-2.12.5Z"/>
    </g>
  </g>
</svg>