<?xml version="1.0" encoding="UTF-8"?>
<svg id="Layer_2" xmlns="http://www.w3.org/2000/svg" viewBox="0 0 64.66 65.78">
  <defs>
    <style>
      .cls-1 {
        fill: #4bbba0;
      }
    </style>
  </defs>
  <g id="Layer_1-2" data-name="Layer_1">
    <path class="cls-1" d="M24.79,65.64c-2.38-.26-4.07-1.29-5.06-3.08-.99-1.79-1.23-3.67-.7-5.66.53-1.98,1.39-3.84,2.58-5.56,1.19-1.72,2.55-3.64,4.07-5.76,1.52-2.12,2.88-4.77,4.07-7.94.26-.79.16-1.32-.3-1.59-.47-.26-1.03-.2-1.69.2-4.63,2.65-8.01,5.26-10.12,7.84-2.12,2.58-4.63,4.4-7.54,5.46-1.85.79-3.74.86-5.66.2-1.92-.66-3.27-2.11-4.07-4.37-.67-2.25-.43-4.33.69-6.25,1.12-1.92,2.61-3.27,4.47-4.07,2.12-.79,4.17-1.09,6.16-.89,1.98.2,4.2.33,6.65.4,2.45.07,5.33-.37,8.64-1.29,1.98-.39,2.18-1.19.6-2.38-2.65-1.85-5.16-3.04-7.54-3.57-2.38-.53-4.54-.99-6.45-1.39-1.92-.4-3.67-1.26-5.26-2.58-1.46-1.19-2.32-2.81-2.58-4.86-.26-2.05.46-4.07,2.19-6.05,1.85-1.85,3.8-2.84,5.86-2.98,2.05-.13,3.74.39,5.06,1.59,1.59,1.32,2.78,2.88,3.57,4.66.79,1.79,1.69,3.77,2.68,5.95.99,2.19,2.55,4.54,4.66,7.05.4.53.83.69,1.29.5s.76-.69.9-1.49c.39-3.44.36-6.32-.1-8.64-.46-2.31-.89-4.47-1.29-6.45-.4-1.99-.4-3.97,0-5.96.4-1.98,1.42-3.67,3.08-5.06,1.65-1.39,3.74-1.89,6.25-1.49,2.38.27,4.07,1.29,5.06,3.08.99,1.79,1.22,3.67.7,5.66-.4,1.98-1.23,3.84-2.48,5.56-1.26,1.72-2.65,3.61-4.17,5.66-1.52,2.05-2.88,4.73-4.07,8.04-.14.79-.03,1.36.3,1.69.33.33.83.3,1.49-.1,3.18-1.72,5.69-3.44,7.54-5.16,1.85-1.72,3.54-3.34,5.06-4.86s3.27-2.68,5.26-3.48c1.85-.79,3.74-.86,5.66-.2,1.91.66,3.27,2.12,4.07,4.37.66,2.25.43,4.34-.69,6.25-1.13,1.92-2.61,3.27-4.47,4.07-1.98.67-4,.93-6.05.79-2.05-.13-4.3-.26-6.75-.4-2.45-.13-5.33.33-8.64,1.39-1.99.4-2.18,1.19-.6,2.38,2.65,1.72,5.16,2.88,7.54,3.47,2.38.6,4.56,1.09,6.55,1.49,1.98.4,3.7,1.26,5.16,2.58,1.46,1.19,2.32,2.81,2.58,4.86.26,2.05-.47,4.07-2.19,6.05-1.72,1.86-3.61,2.85-5.66,2.98-2.05.13-3.8-.4-5.26-1.59-1.46-1.32-2.58-2.84-3.37-4.57-.79-1.72-1.69-3.67-2.68-5.85-.99-2.19-2.55-4.53-4.66-7.05-.53-.53-1.03-.73-1.49-.6-.47.14-.76.6-.9,1.39-.26,3.31-.2,6.15.2,8.53.4,2.38.83,4.54,1.29,6.45.46,1.92.43,3.94-.1,6.06-.4,1.98-1.42,3.67-3.08,5.06-1.66,1.39-3.74,1.89-6.25,1.49Z"/>
  </g>
</svg>